<svg xmlns="http://www.w3.org/2000/svg" xmlns:xlink="http://www.w3.org/1999/xlink" width="1366" height="768" viewBox="0 0 1366 768"> <defs> <clipPath id="clip-path"> <path id="Path_1" data-name="Path 1" d="M1366,0H0V768H1366Z" fill="#fff"/> </clipPath> </defs> <g id="bg-login" clip-path="url(#clip-path)"> <path id="Path_2" data-name="Path 2" d="M-82.6,487.145c95.159-20.089,173.481-74,263.118-111.732C292.9,328.1,456.787,346.3,511.189,237.169,565.114,129,442.554,12.5,420.687-106.369c-20.674-112.39,33.266-241.877-34.158-334.143-67.935-92.965-197.235-111.8-309.713-136.425-106.091-23.228-217.492-39.325-319.212-1.274-98.473,36.837-173.307,117.954-229.776,206.64-51.324,80.606-56.306,177.019-74.27,270.874-18.926,98.882-53.143,195.164-33.84,293.973,22.56,115.481,50.639,250.842,151.958,310.669C-326.921,563.821-197.824,511.469-82.6,487.145Z" transform="translate(0 0)" fill="#53a454"/> <path id="Path_3" data-name="Path 3" d="M1425.94,1249.81c80.76-9.21,165.51,19.55,238.34-16.55,76.28-37.81,129.8-109.21,168.44-185.08,39.82-78.162,56.01-164.356,54.24-252.056-1.96-96.754-.63-204.6-64.92-276.934-64.17-72.188-170.73-88.638-266.99-96.469-84.18-6.847-159.57,36.886-242.04,55.062-90.19,19.875-207.22-14.918-265.43,56.774-58.566,72.138,7.46,180.709-2.4,273.1-9.35,87.564-72.372,167.115-53.762,253.188,20.142,93.18,71.042,193.09,158.472,231.11C1237.01,1329.85,1331.55,1260.58,1425.94,1249.81Z" transform="translate(0 0)" fill="#63b064"/> </g> </svg>